<svg xmlns="http://www.w3.org/2000/svg" viewBox="0 0 1238.91 209.31"><defs><style>.cls-1{isolation:isolate;}.cls-2{fill:#97d5c9;}.cls-13,.cls-14,.cls-3{fill:#2632a0;}.cls-4{fill:#5cbfab;}.cls-5{fill:#4dfeff;}.cls-6{fill:#85fe01;}.cls-7{fill:#fc06c8;}.cls-8{fill:#fc48c8;}.cls-9{fill:#fc68c8;}.cls-10{fill:#fc84c8;}.cls-11{fill:#ffd55a;}.cls-12{fill:none;stroke:#2632a0;stroke-miterlimit:10;}.cls-13,.cls-23,.cls-33{mix-blend-mode:screen;}.cls-13{opacity:0.7;}.cls-14,.cls-17,.cls-21,.cls-26{mix-blend-mode:multiply;}.cls-15,.cls-33{fill:#efeff0;}.cls-16{fill:#494e53;}.cls-17,.cls-24{opacity:0.5;}.cls-18{fill:#a6a7aa;}.cls-19{fill:#2a4360;}.cls-20{fill:#436389;}.cls-22{fill:#1568b3;}.cls-23{fill:gray;}.cls-24,.cls-32{fill:#fff;}.cls-25{fill:#abb4b4;}.cls-26,.cls-29{fill:#cdd7d6;}.cls-27{fill:#e8e1d8;}.cls-28{fill:#96938f;}.cls-30{fill:#dadbdc;}.cls-31{fill:#bcbebf;}.cls-32{opacity:0.6;}</style></defs><g class="cls-1"><g id="Layer_1" data-name="Layer 1"><polygon class="cls-2" points="11.3 108.37 11.3 86.59 14.63 87.72 14.63 108.37 11.3 108.37"/><polygon class="cls-3" points="25.58 94.65 70.66 109.93 115.73 94.65 135.34 87.99 139.25 86.67 141.31 85.97 70.66 62.17 0 85.97 25.58 94.65"/><path class="cls-2" d="M82.48,350.21v12.72a3.93,3.93,0,0,0,7.86,0V350.21a3.9,3.9,0,0,0-1.13-2.75H83.62A3.91,3.91,0,0,0,82.48,350.21Z" transform="translate(-73.45 -236.74)"/><polygon class="cls-4" points="9.67 108.37 9.67 110.72 10.17 110.72 15.76 110.72 16.26 110.72 16.26 108.37 14.63 108.37 11.3 108.37 9.67 108.37"/><path class="cls-5" d="M99.07,338.58v22.13a127.72,127.72,0,0,1,16.36,5.12,129.85,129.85,0,0,1,28.67,15.54,199.7,199.7,0,0,1,52.23-33.63l2.73-12.29q-15.6,6-31.41,12.29-11.52,4.59-22.86,9.22c-7.45-3.71-15.65-7.41-24.58-10.92C112.85,343.14,105.77,340.68,99.07,338.58Z" transform="translate(-73.45 -236.74)"/><path class="cls-6" d="M73.45,371A403.6,403.6,0,0,1,107.92,400a403.12,403.12,0,0,1,42,46.08,333.44,333.44,0,0,1,80.21-87,329.15,329.15,0,0,1,59.73-35.84,301.09,301.09,0,0,0-144.38,70.65,110,110,0,0,0-43.69-20.48A108.11,108.11,0,0,0,73.45,371Z" transform="translate(-73.45 -236.74)"/><polygon class="cls-7" points="175.1 50.52 180.14 60.72 191.4 62.36 183.25 70.31 185.18 81.52 175.1 76.23 165.03 81.52 166.95 70.31 158.8 62.36 170.06 60.72 175.1 50.52"/><polygon class="cls-8" points="153.13 25.26 157.07 33.25 165.88 34.53 159.51 40.75 161.01 49.53 153.13 45.38 145.24 49.53 146.75 40.75 140.37 34.53 149.18 33.25 153.13 25.26"/><polygon class="cls-9" points="125.14 12.29 128.24 18.57 135.17 19.57 130.15 24.46 131.34 31.36 125.14 28.1 118.94 31.36 120.12 24.46 115.11 19.57 122.04 18.57 125.14 12.29"/><polygon class="cls-10" points="97.15 4.1 99.61 9.09 105.13 9.89 101.14 13.78 102.08 19.27 97.15 16.68 92.22 19.27 93.16 13.78 89.17 9.89 94.68 9.09 97.15 4.1"/><polygon class="cls-11" points="73.26 0 75.3 4.14 79.87 4.81 76.56 8.03 77.34 12.58 73.26 10.43 69.17 12.58 69.95 8.03 66.64 4.81 71.21 4.14 73.26 0"/><path class="cls-3" d="M344.4,317.12a15.84,15.84,0,0,1-1.47,6.86,14.56,14.56,0,0,1-4.23,5.29,19.18,19.18,0,0,1-6.43,3.29,28.37,28.37,0,0,1-8.12,1.1,33,33,0,0,1-11.22-1.73,23.62,23.62,0,0,1-8.75-5.73l5.72-5.64a17.4,17.4,0,0,0,4.15,3.17,16.7,16.7,0,0,0,4.81,1.74,28.6,28.6,0,0,0,5.45.5q5.44,0,8.53-2.27a8.34,8.34,0,0,0,.85-12.19,6.72,6.72,0,0,0-2.33-1.52,17.51,17.51,0,0,0-3.81-.87l-6.64-.93q-6.89-1-10.7-4.51-4.09-3.82-4.1-10.74a16.31,16.31,0,0,1,2.28-8.65,15.25,15.25,0,0,1,6.53-5.82,22.76,22.76,0,0,1,10-2.06,28.31,28.31,0,0,1,9.81,1.53,22.78,22.78,0,0,1,7.69,4.88l-5.49,5.41a13.87,13.87,0,0,0-3.63-2.61,16.14,16.14,0,0,0-4-1.35,24.14,24.14,0,0,0-4.6-.41,12.67,12.67,0,0,0-5.52,1.12,8.15,8.15,0,0,0-3.53,3.11,8.4,8.4,0,0,0-1.22,4.53,6.67,6.67,0,0,0,2.12,5.24,10.38,10.38,0,0,0,2.75,1.6,14.34,14.34,0,0,0,3.59,1l6.41,1a28.8,28.8,0,0,1,6.32,1.56,13.51,13.51,0,0,1,4.19,2.6Q344.39,309.59,344.4,317.12Z" transform="translate(-73.45 -236.74)"/><path class="cls-3" d="M397.32,333.2h-9.11l-3.86-11.32H362.12l-3.86,11.32h-9.11l20.65-56.33h6.87ZM382,314.61l-8.53-25-8.77,25Z" transform="translate(-73.45 -236.74)"/><path class="cls-3" d="M447.69,333.2h-7.84l-26-39.64V333.2h-8.61V276.87h7.88l26,39.56V276.87h8.53Z" transform="translate(-73.45 -236.74)"/><path class="cls-3" d="M504.83,333.2H497l-26-39.64V333.2h-8.62V276.87h7.88l26,39.56V276.87h8.54Z" transform="translate(-73.45 -236.74)"/><path class="cls-3" d="M528.12,333.2h-8.61V276.87h8.61Z" transform="translate(-73.45 -236.74)"/><path class="cls-3" d="M582.86,304.65v2.82q0,4.56-.35,8a25.92,25.92,0,0,1-1.6,6.68,16.43,16.43,0,0,1-3.77,5.79q-5.29,5.3-14.58,5.3h-19.8V276.87h19.8q9.29,0,14.58,5.29a17,17,0,0,1,3.77,5.64,23.8,23.8,0,0,1,1.6,6.38,72.88,72.88,0,0,1,.35,7.61Zm-8.54,0c0-3.24-.05-5.75-.15-7.51a22.25,22.25,0,0,0-.83-5,9.69,9.69,0,0,0-2-3.82q-3.48-3.83-9.58-3.82H551.38v40.95h10.35q6.13,0,9.58-3.78a10.69,10.69,0,0,0,2.51-6A89.75,89.75,0,0,0,574.32,304.67Z" transform="translate(-73.45 -236.74)"/><path class="cls-3" d="M635.48,333.2h-8.54V308.59H604.07V333.2h-8.62V276.87h8.62v24h22.87v-24h8.54Z" transform="translate(-73.45 -236.74)"/><path class="cls-3" d="M658.73,333.2h-8.61V276.87h8.61Z" transform="translate(-73.45 -236.74)"/><path class="cls-3" d="M730.89,305q0,6.68-.25,10.21a23.92,23.92,0,0,1-1.41,6.64,16.77,16.77,0,0,1-3.71,5.77,21.33,21.33,0,0,1-29.67,0,16.85,16.85,0,0,1-3.78-5.75,23.76,23.76,0,0,1-1.43-6.63q-.27-3.57-.27-10.26,0-5.13.13-8.15a38.57,38.57,0,0,1,.62-5.52,17.54,17.54,0,0,1,1.59-4.69,17.13,17.13,0,0,1,3.14-4.27,20.1,20.1,0,0,1,14.8-6,20.35,20.35,0,0,1,14.87,6,16.85,16.85,0,0,1,3.73,5.78,23.75,23.75,0,0,1,1.39,6.62Q730.9,298.33,730.89,305Zm-8.54,0a75.21,75.21,0,0,0-.63-11.83,11,11,0,0,0-2.69-5.63A10.48,10.48,0,0,0,715.3,285a11.89,11.89,0,0,0-4.65-.94A12,12,0,0,0,706,285a10.48,10.48,0,0,0-3.73,2.53,11.39,11.39,0,0,0-2.69,5.66,74.67,74.67,0,0,0-.63,11.8c0,3,0,5.37.13,7.16a33.69,33.69,0,0,0,.52,4.68,13.31,13.31,0,0,0,.93,3.13,11.91,11.91,0,0,0,1.74,2.5,11,11,0,0,0,3.76,2.55,12.18,12.18,0,0,0,4.66.92A11,11,0,0,0,719,322.5a10.3,10.3,0,0,0,2.11-3.43,19.9,19.9,0,0,0,1-5.24Q722.36,310.5,722.35,305Z" transform="translate(-73.45 -236.74)"/><path class="cls-3" d="M780.42,276.87,761.76,333.2h-6.68l-18.51-56.33h8.89l12.94,41,13-41Z" transform="translate(-73.45 -236.74)"/><path class="cls-3" d="M824.15,333.2h-36V276.87h36v7.69H796.72V301h23.41v7.61H796.72v16.92h27.43Z" transform="translate(-73.45 -236.74)"/><path class="cls-3" d="M876.91,333.2H867l-11.86-23.68H844.43V333.2h-8.62V276.87H857.7a19.36,19.36,0,0,1,9.18,2.11,15,15,0,0,1,6.15,5.84,16.81,16.81,0,0,1,2.15,8.53,15,15,0,0,1-3.11,9.68,15.42,15.42,0,0,1-8.1,5.28Zm-10.27-39.77a8.34,8.34,0,0,0-2.61-6.5,10,10,0,0,0-7-2.37H844.43v17.62h12.63a10,10,0,0,0,7-2.36A8.14,8.14,0,0,0,866.64,293.43Z" transform="translate(-73.45 -236.74)"/><path class="cls-3" d="M922.88,317.12a15.83,15.83,0,0,1-1.46,6.86,14.56,14.56,0,0,1-4.23,5.29,19.14,19.14,0,0,1-6.44,3.29,28.25,28.25,0,0,1-8.11,1.1,33,33,0,0,1-11.22-1.73,23.62,23.62,0,0,1-8.75-5.73l5.72-5.64a17.4,17.4,0,0,0,4.15,3.17,16.7,16.7,0,0,0,4.81,1.74,28.6,28.6,0,0,0,5.45.5q5.44,0,8.53-2.27a8.36,8.36,0,0,0,.85-12.19,6.72,6.72,0,0,0-2.33-1.52,17.51,17.51,0,0,0-3.81-.87l-6.64-.93q-6.89-1-10.7-4.51-4.1-3.82-4.1-10.74a16.31,16.31,0,0,1,2.28-8.65,15.25,15.25,0,0,1,6.53-5.82,22.76,22.76,0,0,1,10-2.06,28.31,28.31,0,0,1,9.81,1.53,22.88,22.88,0,0,1,7.69,4.88l-5.49,5.41a13.87,13.87,0,0,0-3.63-2.61,16.14,16.14,0,0,0-4-1.35,24.14,24.14,0,0,0-4.6-.41,12.7,12.7,0,0,0-5.52,1.12,8.23,8.23,0,0,0-3.54,3.11,8.48,8.48,0,0,0-1.21,4.53,6.67,6.67,0,0,0,2.12,5.24,10.38,10.38,0,0,0,2.75,1.6,14.34,14.34,0,0,0,3.59,1l6.41,1A28.8,28.8,0,0,1,914.1,303a13.51,13.51,0,0,1,4.19,2.6Q922.88,309.59,922.88,317.12Z" transform="translate(-73.45 -236.74)"/><path class="cls-3" d="M970.32,333.2h-36V276.87h36v7.69H942.9V301h23.4v7.61H942.9v16.92h27.42Z" transform="translate(-73.45 -236.74)"/><path class="cls-3" d="M1023.52,333.2h-9.11l-3.86-11.32H988.31l-3.86,11.32h-9.11L996,276.87h6.87Zm-15.37-18.59-8.53-25-8.76,25Z" transform="translate(-73.45 -236.74)"/><path class="cls-3" d="M1066.71,317.12a15.84,15.84,0,0,1-1.47,6.86,14.56,14.56,0,0,1-4.23,5.29,19.18,19.18,0,0,1-6.43,3.29,28.37,28.37,0,0,1-8.12,1.1,33,33,0,0,1-11.22-1.73,23.62,23.62,0,0,1-8.75-5.73l5.72-5.64a17.4,17.4,0,0,0,4.15,3.17,16.7,16.7,0,0,0,4.81,1.74,28.6,28.6,0,0,0,5.45.5c3.63,0,6.47-.76,8.54-2.27a7.48,7.48,0,0,0,3.09-6.37,7.4,7.4,0,0,0-2.25-5.82,6.72,6.72,0,0,0-2.33-1.52,17.51,17.51,0,0,0-3.81-.87l-6.64-.93q-6.88-1-10.7-4.51-4.1-3.82-4.1-10.74a16.31,16.31,0,0,1,2.28-8.65,15.25,15.25,0,0,1,6.53-5.82,22.76,22.76,0,0,1,10-2.06,28.31,28.31,0,0,1,9.81,1.53,22.78,22.78,0,0,1,7.69,4.88l-5.49,5.41a13.87,13.87,0,0,0-3.63-2.61,16.14,16.14,0,0,0-4-1.35,24.14,24.14,0,0,0-4.6-.41,12.7,12.7,0,0,0-5.52,1.12,8.15,8.15,0,0,0-3.53,3.11,8.4,8.4,0,0,0-1.22,4.53,6.67,6.67,0,0,0,2.12,5.24,10.38,10.38,0,0,0,2.75,1.6,14.34,14.34,0,0,0,3.59,1l6.41,1a28.8,28.8,0,0,1,6.32,1.56,13.51,13.51,0,0,1,4.19,2.6Q1066.7,309.59,1066.71,317.12Z" transform="translate(-73.45 -236.74)"/><line class="cls-12" x1="233.54" y1="112.82" x2="966.45" y2="112.82"/><path class="cls-3" d="M306.31,369.42h15.53v3H309.53v12.93h11.7v3.07h-11.7v14.26h12.85v3H306.31Z" transform="translate(-73.45 -236.74)"/><path class="cls-3" d="M329.29,405.76V369.42h6.09a21.16,21.16,0,0,1,6.55,1,13.09,13.09,0,0,1,5.06,2.89,16.11,16.11,0,0,1,3.52,5.25A20.88,20.88,0,0,1,352,387a25.66,25.66,0,0,1-.84,6.9,18.05,18.05,0,0,1-2.32,5.21,15.48,15.48,0,0,1-3.44,3.71,13.3,13.3,0,0,1-4.43,2.23,21.44,21.44,0,0,1-6,.71Zm3.23-33.47v30.43h2.35c4,0,6.85-.77,8.63-2.31q5.08-4.4,5.09-13.46a24,24,0,0,0-.69-5.91,12.45,12.45,0,0,0-2.29-4.72,9.77,9.77,0,0,0-4.2-3,16.33,16.33,0,0,0-6-1Z" transform="translate(-73.45 -236.74)"/><path class="cls-3" d="M358.7,393.32v-23.9h3.22v22.27a40.89,40.89,0,0,0,.23,5.37,8.85,8.85,0,0,0,1.33,3.51,5.89,5.89,0,0,0,2.4,2,8.38,8.38,0,0,0,3.44.65,8.85,8.85,0,0,0,3.87-.72,5.84,5.84,0,0,0,2.38-2.15,9.09,9.09,0,0,0,1.25-3.53,41.55,41.55,0,0,0,.2-5.14V369.42h3.2v23.9c0,4.13-.68,7.15-2,9q-2.82,3.88-8.73,3.89-5.68,0-8.55-3.66Q358.7,399.77,358.7,393.32Z" transform="translate(-73.45 -236.74)"/><path class="cls-3" d="M408.3,370.39l-.13,3.64a7.63,7.63,0,0,0-2.58-1.18,12.25,12.25,0,0,0-3.64-.56,11.44,11.44,0,0,0-6,1.71,11.71,11.71,0,0,0-4.41,4.93,18.71,18.71,0,0,0-1.6,8.35,24.05,24.05,0,0,0,1,7,12,12,0,0,0,1.95,3.92,12.85,12.85,0,0,0,2.67,2.69,11.13,11.13,0,0,0,3,1.52,11.25,11.25,0,0,0,3.47.52,12.8,12.8,0,0,0,3.28-.43,10.55,10.55,0,0,0,2.79-1.15l.12,3.5a11.57,11.57,0,0,1-2.68.86,16.33,16.33,0,0,1-3.48.37,15.14,15.14,0,0,1-8-2.23,14.18,14.18,0,0,1-5.6-6.39,23,23,0,0,1-1.94-9.76,26.85,26.85,0,0,1,1.18-8,15.73,15.73,0,0,1,2.42-4.81,13.77,13.77,0,0,1,3.34-3.2,14.6,14.6,0,0,1,4.08-1.85,16.29,16.29,0,0,1,4.57-.66A17.38,17.38,0,0,1,408.3,370.39Z" transform="translate(-73.45 -236.74)"/><path class="cls-3" d="M412.35,405.76l12.26-36.34h3.5l12,36.34h-3.4l-3.28-10H418.9l-3.33,10Zm7.52-13h12.62l-6.25-20Z" transform="translate(-73.45 -236.74)"/><path class="cls-3" d="M439.4,369.42h20.45v3h-8.63v33.37H448V372.39H439.4Z" transform="translate(-73.45 -236.74)"/><path class="cls-3" d="M465,369.42h3.23v36.34H465Z" transform="translate(-73.45 -236.74)"/><path class="cls-3" d="M475.1,387.62a37.74,37.74,0,0,1,.69-7.4,16,16,0,0,1,2.27-5.82,12.5,12.5,0,0,1,4.16-3.84,11.3,11.3,0,0,1,5.78-1.5,11.82,11.82,0,0,1,8.19,3.28,12.87,12.87,0,0,1,2.51,3.53,14.39,14.39,0,0,1,1.1,3,35.5,35.5,0,0,1,1,8.39,38.94,38.94,0,0,1-.7,7.71,15.51,15.51,0,0,1-2.34,5.87,12.83,12.83,0,0,1-4.16,3.87,11.17,11.17,0,0,1-5.76,1.47,11.53,11.53,0,0,1-4.7-1,10.58,10.58,0,0,1-3.63-2.6,15.81,15.81,0,0,1-2.44-3.73,14.74,14.74,0,0,1-1-2.79A36.31,36.31,0,0,1,475.1,387.62Zm3.38.25a31.82,31.82,0,0,0,.74,7,15.14,15.14,0,0,0,.88,2.64,12.48,12.48,0,0,0,1.86,2.95,7.9,7.9,0,0,0,2.6,2,7.54,7.54,0,0,0,3.32.73,7.9,7.9,0,0,0,3.95-1,8.78,8.78,0,0,0,3.1-3.08,14.7,14.7,0,0,0,1.83-5.13,36.76,36.76,0,0,0,.56-6.45,34,34,0,0,0-.54-6.19,15.2,15.2,0,0,0-1.75-4.92,9.07,9.07,0,0,0-3-3.13,7.56,7.56,0,0,0-4.08-1.14,7.89,7.89,0,0,0-4,1.09,8.92,8.92,0,0,0-3.15,3.11A14.07,14.07,0,0,0,479,381.4,40.09,40.09,0,0,0,478.48,387.87Z" transform="translate(-73.45 -236.74)"/><path class="cls-3" d="M507.84,369.42h4l15.36,32.45V369.42h3v36.34h-4.07l-15.28-32v32h-3.05Z" transform="translate(-73.45 -236.74)"/><path class="cls-3" d="M535.23,405.76l12.26-36.34H551l12,36.34h-3.4l-3.28-10H541.78l-3.33,10Zm7.52-13h12.62l-6.25-20Z" transform="translate(-73.45 -236.74)"/><path class="cls-3" d="M567.89,369.42h3.22v33.3h11.95v3H567.89Z" transform="translate(-73.45 -236.74)"/><path class="cls-3" d="M621.51,370.39l-.13,3.64a7.8,7.8,0,0,0-2.59-1.18,12.19,12.19,0,0,0-3.63-.56,11.44,11.44,0,0,0-6,1.71,11.73,11.73,0,0,0-4.42,4.93,18.85,18.85,0,0,0-1.6,8.35,24.05,24.05,0,0,0,1,7,12.19,12.19,0,0,0,1.94,3.92,13.12,13.12,0,0,0,2.68,2.69,11,11,0,0,0,3,1.52,11.2,11.2,0,0,0,3.47.52,12.66,12.66,0,0,0,3.27-.43,10.55,10.55,0,0,0,2.79-1.15l.13,3.5a11.67,11.67,0,0,1-2.69.86,16.19,16.19,0,0,1-3.48.37,15.11,15.11,0,0,1-8-2.23,14.26,14.26,0,0,1-5.61-6.39,23,23,0,0,1-1.93-9.76,26.53,26.53,0,0,1,1.18-8,15.72,15.72,0,0,1,2.41-4.81,14,14,0,0,1,3.34-3.2,14.79,14.79,0,0,1,4.09-1.85,16.24,16.24,0,0,1,4.57-.66A17.46,17.46,0,0,1,621.51,370.39Z" transform="translate(-73.45 -236.74)"/><path class="cls-3" d="M627.57,387.62a37.74,37.74,0,0,1,.69-7.4,15.85,15.85,0,0,1,2.27-5.82,12.4,12.4,0,0,1,4.16-3.84,11.3,11.3,0,0,1,5.78-1.5,11.87,11.87,0,0,1,8.19,3.28,12.87,12.87,0,0,1,2.51,3.53,14.39,14.39,0,0,1,1.1,3,35.5,35.5,0,0,1,1,8.39,39.75,39.75,0,0,1-.69,7.71,15.51,15.51,0,0,1-2.34,5.87,12.94,12.94,0,0,1-4.16,3.87,11.17,11.17,0,0,1-5.76,1.47,11.54,11.54,0,0,1-4.71-1,10.63,10.63,0,0,1-3.62-2.6,15.81,15.81,0,0,1-2.44-3.73,14.74,14.74,0,0,1-1-2.79A36.31,36.31,0,0,1,627.57,387.62Zm3.38.25a31.82,31.82,0,0,0,.74,7,16,16,0,0,0,.87,2.64,12.83,12.83,0,0,0,1.87,2.95,7.79,7.79,0,0,0,2.6,2,7.5,7.5,0,0,0,3.31.73,7.91,7.91,0,0,0,4-1,8.78,8.78,0,0,0,3.1-3.08,14.7,14.7,0,0,0,1.83-5.13,36.76,36.76,0,0,0,.56-6.45,34,34,0,0,0-.54-6.19,15.2,15.2,0,0,0-1.75-4.92,9.07,9.07,0,0,0-3-3.13,7.56,7.56,0,0,0-4.08-1.14,7.89,7.89,0,0,0-4,1.09,8.76,8.76,0,0,0-3.15,3.11,13.88,13.88,0,0,0-1.77,5.12A40.09,40.09,0,0,0,631,387.87Z" transform="translate(-73.45 -236.74)"/><path class="cls-3" d="M660.31,369.42h4l15.36,32.45V369.42h3v36.34h-4.07l-15.28-32v32h-3Z" transform="translate(-73.45 -236.74)"/><path class="cls-3" d="M705.23,370.39l-.1,3.58a11.3,11.3,0,0,0-2.7-1.16,10.48,10.48,0,0,0-3-.47,6,6,0,0,0-4.39,1.57A5.45,5.45,0,0,0,693.4,378a5.37,5.37,0,0,0,.85,3,15.83,15.83,0,0,0,3.86,3.46,61.93,61.93,0,0,1,5.68,4.43,9,9,0,0,1,2.28,3,11.23,11.23,0,0,1,.87,4.53,9,9,0,0,1-2.88,7.13,10.5,10.5,0,0,1-7.2,2.54,14.18,14.18,0,0,1-3.42-.43,12,12,0,0,1-3.19-1.28l.18-3.79a8.14,8.14,0,0,0,2.83,1.66,10.22,10.22,0,0,0,3.62.69,7.15,7.15,0,0,0,3.52-.82,5.35,5.35,0,0,0,2.29-2.41,7.49,7.49,0,0,0,.8-3.37,7,7,0,0,0-.59-2.84,7.3,7.3,0,0,0-1.74-2.41,46.17,46.17,0,0,0-4.28-3.2,37.17,37.17,0,0,1-4.17-3.2,8.86,8.86,0,0,1-2.07-2.94,10.33,10.33,0,0,1,.4-8.33,7.23,7.23,0,0,1,3.34-3.11,11.72,11.72,0,0,1,5.19-1.1A14.18,14.18,0,0,1,705.23,370.39Z" transform="translate(-73.45 -236.74)"/><path class="cls-3" d="M713.62,393.32v-23.9h3.23v22.27a39.14,39.14,0,0,0,.23,5.37,8.7,8.7,0,0,0,1.33,3.51,5.86,5.86,0,0,0,2.39,2,8.43,8.43,0,0,0,3.45.65,8.77,8.77,0,0,0,3.86-.72,5.78,5.78,0,0,0,2.38-2.15,9.09,9.09,0,0,0,1.25-3.53,40.93,40.93,0,0,0,.21-5.14V369.42h3.2v23.9c0,4.13-.68,7.15-2,9q-2.82,3.88-8.73,3.89c-3.79,0-6.63-1.22-8.55-3.66C714.36,400.71,713.62,397.62,713.62,393.32Z" transform="translate(-73.45 -236.74)"/><path class="cls-3" d="M743.65,369.42h3.22v33.3h12v3H743.65Z" transform="translate(-73.45 -236.74)"/><path class="cls-3" d="M756.06,369.42h20.45v3h-8.63v33.37h-3.2V372.39h-8.62Z" transform="translate(-73.45 -236.74)"/><path class="cls-3" d="M775.74,405.76,788,369.42h3.51l12,36.34h-3.41l-3.27-10H782.29l-3.32,10Zm7.53-13h12.62l-6.25-20Z" transform="translate(-73.45 -236.74)"/><path class="cls-3" d="M808.56,369.42h4l15.36,32.45V369.42h3v36.34h-4.07l-15.28-32v32h-3Z" transform="translate(-73.45 -236.74)"/><path class="cls-3" d="M836.28,369.42h20.45v3H848.1v33.37h-3.2V372.39h-8.62Z" transform="translate(-73.45 -236.74)"/><path class="cls-3" d="M875.84,370.39l-.1,3.58a11,11,0,0,0-2.7-1.16,10.43,10.43,0,0,0-3-.47,6.05,6.05,0,0,0-4.39,1.57,5.91,5.91,0,0,0-.78,7.1,15.73,15.73,0,0,0,3.87,3.46,63.41,63.41,0,0,1,5.68,4.43,9,9,0,0,1,2.28,3,11.23,11.23,0,0,1,.87,4.53,9,9,0,0,1-2.88,7.13,10.51,10.51,0,0,1-7.21,2.54,14.16,14.16,0,0,1-3.41-.43,12,12,0,0,1-3.19-1.28l.18-3.79a8.14,8.14,0,0,0,2.83,1.66,10.22,10.22,0,0,0,3.62.69,7.18,7.18,0,0,0,3.52-.82,5.4,5.4,0,0,0,2.29-2.41,7.48,7.48,0,0,0,.79-3.37,7,7,0,0,0-.58-2.84,7.6,7.6,0,0,0-1.74-2.41,46.17,46.17,0,0,0-4.28-3.2,36.22,36.22,0,0,1-4.17-3.2,8.86,8.86,0,0,1-2.07-2.94,9.24,9.24,0,0,1-.7-3.74,9.55,9.55,0,0,1,1.09-4.59,7.33,7.33,0,0,1,3.34-3.11,11.77,11.77,0,0,1,5.2-1.1A14.13,14.13,0,0,1,875.84,370.39Z" transform="translate(-73.45 -236.74)"/><path class="cls-3" d="M271.24,272.55a10.51,10.51,0,0,0,5.3,1.49c3,0,4.79-1.59,4.79-3.91,0-2.14-1.22-3.36-4.31-4.55-3.74-1.33-6-3.26-6-6.49,0-3.57,2.95-6.23,7.41-6.23a10.37,10.37,0,0,1,5.06,1.13l-.81,2.41a9.12,9.12,0,0,0-4.36-1.09c-3.12,0-4.31,1.87-4.31,3.44,0,2.14,1.39,3.19,4.55,4.42,3.88,1.49,5.85,3.36,5.85,6.73,0,3.53-2.62,6.59-8,6.59a11.8,11.8,0,0,1-5.85-1.46Z" transform="translate(-73.45 -236.74)"/><path class="cls-3" d="M288.3,264.83c0-1.94,0-3.6-.13-5.13h2.61l.11,3.23H291a5,5,0,0,1,4.56-3.61,3.18,3.18,0,0,1,.85.11v2.82a4.46,4.46,0,0,0-1-.1c-2.11,0-3.61,1.59-4,3.84a8.16,8.16,0,0,0-.14,1.39v8.77h-3Z" transform="translate(-73.45 -236.74)"/><path class="cls-3" d="M302.88,255.07a1.76,1.76,0,0,1-1.9,1.84,1.78,1.78,0,0,1-1.8-1.84,1.82,1.82,0,0,1,1.87-1.87A1.77,1.77,0,0,1,302.88,255.07Zm-3.33,21.08V259.7h3v16.45Z" transform="translate(-73.45 -236.74)"/><path class="cls-3" d="M1056.93,352.63l6-4.13h0c1.57-.51,2.94-1.26,4.66-.59A20,20,0,0,1,1071,350c8.31,6.1,15,11,20.36,14.84,1.28.92,23.31,5.57,24.43,6.38,9.32,6.71-6.84,7.49-6.34,8,1.65,1.64-31.29,7.78-38,10.86l-14.74-33.49A8.75,8.75,0,0,1,1056.93,352.63Z" transform="translate(-73.45 -236.74)"/><path class="cls-3" d="M1062.25,349.67h0l-5.48,3.74a6.1,6.1,0,0,1,.2-.79l6-4.13h0l.62-.21A3.24,3.24,0,0,1,1062.25,349.67Z" transform="translate(-73.45 -236.74)"/><path class="cls-13" d="M1115,372.41c-1.12-.81-23.15-5.46-24.42-6.38-5.34-3.86-12.06-8.74-20.37-14.84-.56-.35-1.22-1.71-1.9-3,1,.51,1.78,1.25,2.68,1.81,8.31,6.1,15,11,20.36,14.84,1.28.92,23.31,5.57,24.43,6.38,3.38,2.44,3.4,4.09,2.08,5.23C1118.06,375.43,1117.34,374.11,1115,372.41Z" transform="translate(-73.45 -236.74)"/><path class="cls-14" d="M1056.93,352.63l6-4.13h0c1.36-.44,2.57-1.06,4-.79a8.92,8.92,0,0,0-1.23.48c-2.63,1.25-7.65,3.57-6.26,7,2.44,6.11,6.07,12,9.14,17.82,2.65,5.09,5.14,10.27,7.78,15.37a38.79,38.79,0,0,0-5,1.69l-14.74-33.49A8.75,8.75,0,0,1,1056.93,352.63Z" transform="translate(-73.45 -236.74)"/><path class="cls-15" d="M1298.24,347c-31.13-15.08-37-12.25-58.88-6.59s-83.9,23.16-106.93,29.26-46.93,13.28-49.11,14a172.31,172.31,0,0,0-17.26,8.56,50.89,50.89,0,0,0-6,3.6c-1.65,1.33.64,5.92,4.14,7.34.82.34,9.85,3,9.85,3s4.65,1.83,14.57,2.46c8.53.55,97.11-4.4,184.88-27.36,25-6.54,40.2-21.82,38.75-27.41C1310.86,348.57,1298.24,347,1298.24,347Z" transform="translate(-73.45 -236.74)"/><path class="cls-14" d="M1273.51,381.33c-9.45,2.48-18.91,4.74-28.27,6.81a123.18,123.18,0,0,1-23.75,0c-11.56-1.15-23-3.19-34.6-4.16-13.42-1.12-27-.59-40.5.16s-26.87,2-40.21,3.8-27.16,4-39.84,8.72c-2.1.77-4.26,1.51-6.4,2.31a5.43,5.43,0,0,1-.39-1.39l.56-.36c21.92-13.35,48.32-18.94,73.75-22.83,27.17-4.16,54.84-5.78,82.31-6,24.6-.22,49.93.86,74-4.91,5.18-1.25,18.1-4.47,21.83-10.1a4.44,4.44,0,0,1,.22.61C1313.71,359.51,1298.53,374.79,1273.51,381.33Z" transform="translate(-73.45 -236.74)"/><path class="cls-16" d="M1259.82,353.15a34.4,34.4,0,0,1-4.36-5.6,2.27,2.27,0,0,1,.4-2.86q3.09-.93,6.89-2l2.07-.56,13.07,9.7a91.73,91.73,0,0,1-10,3C1264.52,355.63,1262.38,355.71,1259.82,353.15Z" transform="translate(-73.45 -236.74)"/><path class="cls-16" d="M1295.23,345.9s-11.41-5.92-14.69-6.41c-.79-.13-3.53-.42-14.47,2.23l12.73,9.71C1283.4,349.92,1290,347.87,1295.23,345.9Z" transform="translate(-73.45 -236.74)"/><g class="cls-17"><path class="cls-16" d="M1257.43,350.37c-.69-.91-1.34-1.86-2-2.82a2.27,2.27,0,0,1,.4-2.86q3.09-.93,6.89-2l2.07-.56,5.61,4.16C1266.05,347.53,1261.73,348.92,1257.43,350.37Z" transform="translate(-73.45 -236.74)"/><path class="cls-16" d="M1286.21,343.57a38.63,38.63,0,0,0-10.74,1.44c-1.28.3-2.55.63-3.81,1l-5.59-4.26c10.94-2.65,13.68-2.36,14.47-2.23,2.37.35,9,3.53,12.45,5.27A34.91,34.91,0,0,0,1286.21,343.57Z" transform="translate(-73.45 -236.74)"/></g><path class="cls-18" d="M1230.72,372.19c-1.52-3.12-4.28-13.44-4.39-13.87,0-.12-1-3-.09-4.49a1.69,1.69,0,0,1,1.1-.79h.05l4.46-1.21,4.36-1.24a3.66,3.66,0,0,1,.42-.12,3.27,3.27,0,0,1,4,1.8c1.21,2.65,4.3,13.56,4.43,14,0,0,1.32,3.82-1.75,5.73l-7.36,2a4.29,4.29,0,0,1-.71.22A3.77,3.77,0,0,1,1230.72,372.19Zm13.91-5.8c0-.12-3.22-11.35-4.41-14a2.83,2.83,0,0,0-3.49-1.56l-.38.1L1232,352.2l-4.46,1.21h-.06a1.29,1.29,0,0,0-.83.6c-.81,1.32.11,4.15.13,4.19s2.86,10.73,4.37,13.81a3.3,3.3,0,0,0,4,1.78,5.59,5.59,0,0,0,.67-.21l7.3-1.93C1245.85,369.91,1244.65,366.43,1244.63,366.39Z" transform="translate(-73.45 -236.74)"/><path class="cls-18" d="M1214.56,365.15a.92.92,0,0,0,.18,0l2-.45,0,0a1.48,1.48,0,0,0,.6-1.73c0-.11-.74-3-1-3.77a1.08,1.08,0,0,0-1.32-.61.25.25,0,0,0-.09,0l-2.35.57h0a.64.64,0,0,0-.44.29,2,2,0,0,0,0,1.34,34.75,34.75,0,0,0,1,3.74A1.17,1.17,0,0,0,1214.56,365.15Z" transform="translate(-73.45 -236.74)"/><path class="cls-19" d="M1214.58,364.78l.16,0,1.72-.4,0,0a1.3,1.3,0,0,0,.53-1.51c0-.1-.66-2.68-.92-3.31A.94.94,0,0,0,1215,359l-.08,0-2.06.5h0a.66.66,0,0,0-.39.27,1.66,1.66,0,0,0,0,1.17,29.06,29.06,0,0,0,.92,3.28A1,1,0,0,0,1214.58,364.78Z" transform="translate(-73.45 -236.74)"/><path class="cls-20" d="M1216,361l-2.74.63c-.06-.25-.1-.42-.1-.44a2.32,2.32,0,0,1-.06-1.14.37.37,0,0,1,.26-.23h0l1.45-.36a.09.09,0,0,1,.06,0c.29-.07.68,0,.88.6.07.19.17.55.28,1C1216,361,1216,361,1216,361Z" transform="translate(-73.45 -236.74)"/><path class="cls-18" d="M1207.71,366.75l.18-.05,2-.46,0,0a1.46,1.46,0,0,0,.6-1.72c0-.11-.74-3-1-3.77a1.09,1.09,0,0,0-1.32-.62l-.09,0-2.35.57h0a.68.68,0,0,0-.44.3,2,2,0,0,0,0,1.33,34.15,34.15,0,0,0,1,3.75A1.19,1.19,0,0,0,1207.71,366.75Z" transform="translate(-73.45 -236.74)"/><path class="cls-19" d="M1207.73,366.37a.7.7,0,0,0,.16-.05l1.73-.39,0,0a1.32,1.32,0,0,0,.53-1.52c0-.09-.66-2.67-.92-3.31a1,1,0,0,0-1.15-.54l-.09,0-2.06.5h0a.61.61,0,0,0-.39.26,1.72,1.72,0,0,0,0,1.17,29.1,29.1,0,0,0,.92,3.29A1,1,0,0,0,1207.73,366.37Z" transform="translate(-73.45 -236.74)"/><path class="cls-20" d="M1209.14,362.56l-2.73.64c-.07-.25-.11-.42-.11-.44a2.32,2.32,0,0,1-.06-1.14.39.39,0,0,1,.26-.24h0L1208,361l.06,0c.29-.07.68.06.87.6a9.35,9.35,0,0,1,.29,1Z" transform="translate(-73.45 -236.74)"/><path class="cls-18" d="M1200.86,368.35l.18-.06,2-.45,0,0a1.47,1.47,0,0,0,.6-1.73c0-.11-.74-3-1.05-3.77a1.05,1.05,0,0,0-1.3-.61.26.26,0,0,0-.1,0l-2.35.57h0a.66.66,0,0,0-.44.3,1.89,1.89,0,0,0,0,1.33,31.44,31.44,0,0,0,1.05,3.74A1.18,1.18,0,0,0,1200.86,368.35Z" transform="translate(-73.45 -236.74)"/><path class="cls-19" d="M1200.88,368a.7.7,0,0,0,.16-.05l1.73-.4h0a1.32,1.32,0,0,0,.53-1.52c0-.1-.66-2.67-.92-3.31a.94.94,0,0,0-1.15-.54l-.09,0-2.06.51h0a.61.61,0,0,0-.39.26,1.66,1.66,0,0,0,0,1.17,29.69,29.69,0,0,0,.92,3.29A1,1,0,0,0,1200.88,368Z" transform="translate(-73.45 -236.74)"/><path class="cls-20" d="M1202.29,364.16l-2.73.64c-.07-.26-.1-.43-.11-.45a2.31,2.31,0,0,1-.06-1.14.37.37,0,0,1,.26-.23h0l1.45-.36.06,0c.29-.07.68,0,.88.6.07.19.17.55.28,1C1202.32,364.16,1202.31,364.15,1202.29,364.16Z" transform="translate(-73.45 -236.74)"/><path class="cls-18" d="M1194,369.94a.92.92,0,0,0,.18-.05l2-.45,0,0a1.48,1.48,0,0,0,.61-1.72c0-.11-.75-3-1-3.77a1.08,1.08,0,0,0-1.32-.61l-.09,0-2.35.58h0a.63.63,0,0,0-.44.29,2,2,0,0,0,0,1.34,34.75,34.75,0,0,0,1,3.74A1.17,1.17,0,0,0,1194,369.94Z" transform="translate(-73.45 -236.74)"/><path class="cls-19" d="M1194,369.56l.16,0,1.73-.4,0,0a1.31,1.31,0,0,0,.53-1.52c0-.09-.66-2.67-.92-3.3a.93.93,0,0,0-1.15-.54l-.09,0-2.06.5h0a.61.61,0,0,0-.39.26,1.72,1.72,0,0,0,0,1.17,28.53,28.53,0,0,0,.92,3.29A1,1,0,0,0,1194,369.56Z" transform="translate(-73.45 -236.74)"/><path class="cls-20" d="M1195.45,365.75l-2.74.64c-.07-.25-.11-.42-.11-.44a2.32,2.32,0,0,1-.06-1.14.39.39,0,0,1,.26-.23h0l1.45-.37.06,0a.77.77,0,0,1,.88.6c.07.19.17.55.28,1Z" transform="translate(-73.45 -236.74)"/><path class="cls-18" d="M1187.16,371.54l.18-.05,2-.46,0,0a1.46,1.46,0,0,0,.6-1.72c0-.11-.74-3.05-1-3.77a1.07,1.07,0,0,0-1.31-.62l-.09,0-2.35.57h0a.66.66,0,0,0-.44.3,1.89,1.89,0,0,0,0,1.33,32,32,0,0,0,1,3.75A1.19,1.19,0,0,0,1187.16,371.54Z" transform="translate(-73.45 -236.74)"/><path class="cls-19" d="M1187.18,371.16a.7.7,0,0,0,.16-.05l1.73-.39,0,0a1.31,1.31,0,0,0,.54-1.52c0-.09-.66-2.67-.92-3.31a1,1,0,0,0-1.15-.54l-.09,0-2.06.5h0a.61.61,0,0,0-.39.26,1.72,1.72,0,0,0,0,1.17,29.69,29.69,0,0,0,.92,3.29A1,1,0,0,0,1187.18,371.16Z" transform="translate(-73.45 -236.74)"/><path class="cls-20" d="M1188.59,367.35l-2.73.64c-.07-.25-.1-.42-.11-.45a2.31,2.31,0,0,1-.06-1.14.37.37,0,0,1,.26-.23h0l1.45-.36.06,0c.29-.07.68.06.88.6.07.19.17.55.28,1Z" transform="translate(-73.45 -236.74)"/><path class="cls-18" d="M1180.31,373.14l.18-.06,2-.45,0,0a1.5,1.5,0,0,0,.61-1.73c0-.11-.75-3-1.06-3.77a1.05,1.05,0,0,0-1.3-.61.26.26,0,0,0-.1,0l-2.35.57h0a.68.68,0,0,0-.44.3,2,2,0,0,0,0,1.33,37.29,37.29,0,0,0,1,3.74A1.18,1.18,0,0,0,1180.31,373.14Z" transform="translate(-73.45 -236.74)"/><path class="cls-19" d="M1180.33,372.76l.16-.05,1.73-.4,0,0a1.3,1.3,0,0,0,.53-1.51c0-.1-.66-2.67-.92-3.31a.93.93,0,0,0-1.15-.54l-.09,0-2.06.5h0a.66.66,0,0,0-.39.27,1.72,1.72,0,0,0,0,1.17,29.06,29.06,0,0,0,.92,3.28A1,1,0,0,0,1180.33,372.76Z" transform="translate(-73.45 -236.74)"/><path class="cls-20" d="M1181.74,369l-2.73.64c-.07-.26-.1-.43-.11-.45a2.31,2.31,0,0,1-.06-1.14.37.37,0,0,1,.26-.23h0l1.46-.36,0,0c.3-.07.68.05.88.6.07.19.17.55.28,1Z" transform="translate(-73.45 -236.74)"/><path class="cls-18" d="M1173.46,374.73a.92.92,0,0,0,.18-.05l2-.45,0,0a1.46,1.46,0,0,0,.6-1.72c0-.11-.74-3-1-3.77a1.09,1.09,0,0,0-1.31-.62l-.1,0-2.35.57h0a.68.68,0,0,0-.44.3,1.89,1.89,0,0,0,0,1.33,32,32,0,0,0,1,3.75A1.19,1.19,0,0,0,1173.46,374.73Z" transform="translate(-73.45 -236.74)"/><path class="cls-19" d="M1173.48,374.35l.16,0,1.73-.4,0,0a1.31,1.31,0,0,0,.54-1.52c0-.09-.66-2.67-.92-3.3a.94.94,0,0,0-1.15-.54l-.09,0-2.06.5h0a.61.61,0,0,0-.39.26,1.72,1.72,0,0,0,0,1.17,29.1,29.1,0,0,0,.92,3.29A1,1,0,0,0,1173.48,374.35Z" transform="translate(-73.45 -236.74)"/><path class="cls-20" d="M1174.89,370.54l-2.73.64c-.06-.25-.1-.42-.11-.44a2.32,2.32,0,0,1-.06-1.14.35.35,0,0,1,.26-.23h0l1.45-.36.07,0c.29-.07.67.06.87.6.06.19.17.55.28,1Z" transform="translate(-73.45 -236.74)"/><path class="cls-18" d="M1166.61,376.33l.18-.06,2-.45,0,0a1.49,1.49,0,0,0,.61-1.73c0-.11-.75-3-1.05-3.77a1.08,1.08,0,0,0-1.31-.61l-.1,0-2.35.57h0a.68.68,0,0,0-.44.3,2,2,0,0,0,0,1.33,31.44,31.44,0,0,0,1.05,3.74A1.18,1.18,0,0,0,1166.61,376.33Z" transform="translate(-73.45 -236.74)"/><path class="cls-19" d="M1166.63,376a.7.7,0,0,0,.16-.05l1.73-.4h0a1.32,1.32,0,0,0,.53-1.52c0-.1-.66-2.67-.92-3.31a1,1,0,0,0-1.16-.54l-.08,0-2.06.51h0a.61.61,0,0,0-.39.26,1.72,1.72,0,0,0,0,1.17,29.69,29.69,0,0,0,.92,3.29A1,1,0,0,0,1166.63,376Z" transform="translate(-73.45 -236.74)"/><path class="cls-20" d="M1168,372.14l-2.73.64c-.07-.26-.1-.43-.11-.45a2.31,2.31,0,0,1-.06-1.14.37.37,0,0,1,.26-.23h0l1.46-.36.05,0c.3-.07.68.06.88.6.07.19.17.55.28,1Z" transform="translate(-73.45 -236.74)"/><path class="cls-18" d="M1159.76,377.92a.92.92,0,0,0,.18-.05l2-.45,0,0a1.48,1.48,0,0,0,.6-1.73c0-.11-.74-3-1-3.77a1.08,1.08,0,0,0-1.32-.61l-.09,0-2.35.57h0a.67.67,0,0,0-.44.29,2,2,0,0,0,0,1.34,34.75,34.75,0,0,0,1,3.74A1.17,1.17,0,0,0,1159.76,377.92Z" transform="translate(-73.45 -236.74)"/><path class="cls-19" d="M1159.78,377.55l.16-.05,1.73-.4,0,0a1.3,1.3,0,0,0,.53-1.51c0-.1-.66-2.68-.92-3.31a.94.94,0,0,0-1.15-.54l-.09,0-2.06.5h0a.66.66,0,0,0-.39.27,1.72,1.72,0,0,0,0,1.17,29.06,29.06,0,0,0,.92,3.28A1,1,0,0,0,1159.78,377.55Z" transform="translate(-73.45 -236.74)"/><path class="cls-20" d="M1161.2,373.74l-2.74.63c-.07-.25-.11-.42-.11-.44a2.32,2.32,0,0,1-.06-1.14.37.37,0,0,1,.27-.23h0l1.45-.36.06,0c.29-.07.68.05.88.6.07.18.17.55.29,1Z" transform="translate(-73.45 -236.74)"/><path class="cls-18" d="M1152.91,379.52l.18,0,2-.46,0,0a1.48,1.48,0,0,0,.61-1.72c0-.11-.75-3-1-3.77a1.08,1.08,0,0,0-1.31-.62l-.1,0-2.35.57h0a.68.68,0,0,0-.44.3,2,2,0,0,0,0,1.33,34.15,34.15,0,0,0,1,3.75A1.19,1.19,0,0,0,1152.91,379.52Z" transform="translate(-73.45 -236.74)"/><path class="cls-19" d="M1152.93,379.14a.7.7,0,0,0,.16-.05l1.73-.39,0,0a1.32,1.32,0,0,0,.53-1.52c0-.09-.66-2.67-.92-3.31a1,1,0,0,0-1.15-.54l-.09,0-2.06.5h0a.61.61,0,0,0-.39.26,1.72,1.72,0,0,0,0,1.17,29.1,29.1,0,0,0,.92,3.29A1,1,0,0,0,1152.93,379.14Z" transform="translate(-73.45 -236.74)"/><path class="cls-20" d="M1154.34,375.33l-2.73.64c-.06-.25-.1-.42-.11-.44a2.24,2.24,0,0,1,0-1.14.35.35,0,0,1,.25-.24h0l1.45-.36.06,0c.3-.07.68.06.88.6.07.19.17.55.28,1Z" transform="translate(-73.45 -236.74)"/><path class="cls-18" d="M1146.06,381.12l.18-.06,2-.45,0,0a1.47,1.47,0,0,0,.6-1.73c0-.11-.74-3-1-3.77a1.07,1.07,0,0,0-1.31-.61.26.26,0,0,0-.1,0l-2.35.57h0a.71.71,0,0,0-.44.3,2,2,0,0,0,0,1.33,33.51,33.51,0,0,0,1,3.74A1.19,1.19,0,0,0,1146.06,381.12Z" transform="translate(-73.45 -236.74)"/><path class="cls-19" d="M1146.08,380.74a.7.7,0,0,0,.16-.05l1.73-.4,0,0a1.3,1.3,0,0,0,.53-1.51c0-.1-.66-2.67-.92-3.31a.94.94,0,0,0-1.15-.54l-.09,0-2.06.5h0a.61.61,0,0,0-.39.26,1.72,1.72,0,0,0,0,1.17,29.69,29.69,0,0,0,.92,3.29A1,1,0,0,0,1146.08,380.74Z" transform="translate(-73.45 -236.74)"/><path class="cls-20" d="M1147.5,376.93l-2.74.64c-.06-.26-.1-.43-.11-.45a2.31,2.31,0,0,1-.06-1.14.39.39,0,0,1,.26-.23h0l1.46-.36,0,0c.3-.07.68.05.88.6.07.19.17.55.29,1Z" transform="translate(-73.45 -236.74)"/><path class="cls-18" d="M1139.21,382.71a.92.92,0,0,0,.18,0l2-.45,0,0a1.48,1.48,0,0,0,.6-1.73c0-.11-.74-3-1-3.77a1.07,1.07,0,0,0-1.31-.61l-.1,0-2.35.57h0a.63.63,0,0,0-.44.29,2,2,0,0,0,0,1.34,37.29,37.29,0,0,0,1,3.74A1.17,1.17,0,0,0,1139.21,382.71Z" transform="translate(-73.45 -236.74)"/><path class="cls-19" d="M1139.23,382.33l.16,0,1.73-.4,0,0a1.31,1.31,0,0,0,.53-1.52c0-.09-.66-2.67-.92-3.3a.93.93,0,0,0-1.15-.54l-.09,0-2.06.5h0a.61.61,0,0,0-.39.26,1.79,1.79,0,0,0,0,1.17,28.53,28.53,0,0,0,.92,3.29A1,1,0,0,0,1139.23,382.33Z" transform="translate(-73.45 -236.74)"/><path class="cls-20" d="M1140.65,378.52l-2.74.64c-.06-.25-.1-.42-.11-.44a2.23,2.23,0,0,1,0-1.14.36.36,0,0,1,.26-.23h0l1.46-.37.06,0c.29-.06.67.06.87.6.07.19.17.55.28,1Z" transform="translate(-73.45 -236.74)"/><path class="cls-18" d="M1132.36,384.31l.18-.05,2-.46,0,0a1.46,1.46,0,0,0,.6-1.72c0-.11-.74-3.05-1-3.77a1.08,1.08,0,0,0-1.31-.62l-.1,0-2.35.57h0a.68.68,0,0,0-.44.3,2,2,0,0,0,0,1.33,36.59,36.59,0,0,0,1.05,3.75A1.19,1.19,0,0,0,1132.36,384.31Z" transform="translate(-73.45 -236.74)"/><path class="cls-19" d="M1132.38,383.93a.7.7,0,0,0,.16-.05l1.73-.4h0a1.3,1.3,0,0,0,.53-1.52c0-.1-.66-2.67-.92-3.31a1,1,0,0,0-1.15-.54l-.09,0-2.06.5h0a.61.61,0,0,0-.39.26,1.72,1.72,0,0,0,0,1.17,29.69,29.69,0,0,0,.92,3.29A1,1,0,0,0,1132.38,383.93Z" transform="translate(-73.45 -236.74)"/><path class="cls-20" d="M1133.8,380.12l-2.74.64c-.06-.25-.1-.42-.11-.45a2.31,2.31,0,0,1-.06-1.14.39.39,0,0,1,.27-.23h0l1.45-.36.06,0c.3-.07.68.06.88.6.07.19.17.55.29,1Z" transform="translate(-73.45 -236.74)"/><path class="cls-18" d="M1125.51,385.9a.92.92,0,0,0,.18,0l2-.45,0,0a1.5,1.5,0,0,0,.61-1.73c0-.11-.75-3-1-3.77a1.07,1.07,0,0,0-1.31-.61.26.26,0,0,0-.1,0l-2.35.57h0a.71.71,0,0,0-.44.3,2,2,0,0,0,0,1.33,37.29,37.29,0,0,0,1,3.74A1.17,1.17,0,0,0,1125.51,385.9Z" transform="translate(-73.45 -236.74)"/><path class="cls-19" d="M1125.53,385.53l.16,0,1.73-.4,0,0a1.29,1.29,0,0,0,.53-1.51c0-.1-.66-2.67-.92-3.31a.93.93,0,0,0-1.15-.54l-.09,0-2.06.5h0a.66.66,0,0,0-.39.27,1.72,1.72,0,0,0,0,1.17,29.06,29.06,0,0,0,.92,3.28A1,1,0,0,0,1125.53,385.53Z" transform="translate(-73.45 -236.74)"/><path class="cls-20" d="M1127,381.72l-2.74.63c-.06-.25-.1-.42-.11-.44a2.22,2.22,0,0,1,0-1.14.34.34,0,0,1,.26-.23h0l1.46-.36a.09.09,0,0,1,.06,0c.29-.07.67,0,.87.6.07.19.17.55.29,1C1127,381.72,1127,381.71,1127,381.72Z" transform="translate(-73.45 -236.74)"/><path class="cls-18" d="M1118.66,387.5a.92.92,0,0,0,.18-.05l2-.45,0,0a1.46,1.46,0,0,0,.6-1.72c0-.11-.74-3-1-3.77a1.09,1.09,0,0,0-1.31-.62l-.1,0-2.34.57h0a.68.68,0,0,0-.44.3,2,2,0,0,0,0,1.33,36.59,36.59,0,0,0,1,3.75A1.19,1.19,0,0,0,1118.66,387.5Z" transform="translate(-73.45 -236.74)"/><path class="cls-19" d="M1118.68,387.12l.16,0,1.73-.4,0,0a1.31,1.31,0,0,0,.53-1.52c0-.09-.66-2.67-.92-3.3a.94.94,0,0,0-1.15-.55l-.09,0-2.06.5h0a.56.56,0,0,0-.38.26,1.68,1.68,0,0,0,0,1.17,31.42,31.42,0,0,0,.92,3.29A1,1,0,0,0,1118.68,387.12Z" transform="translate(-73.45 -236.74)"/><path class="cls-20" d="M1120.1,383.31l-2.74.64c-.06-.25-.1-.42-.11-.44a2.32,2.32,0,0,1-.06-1.14.35.35,0,0,1,.27-.23h0l1.46-.36.06,0c.29-.07.67.06.87.6.07.19.17.55.29,1Z" transform="translate(-73.45 -236.74)"/><path class="cls-18" d="M1111.81,389.1l.18-.06,2-.45,0,0a1.48,1.48,0,0,0,.61-1.73c0-.11-.75-3-1-3.77a1.08,1.08,0,0,0-1.31-.61l-.1,0-2.34.57h0a.71.71,0,0,0-.44.3,2,2,0,0,0,0,1.33,35.86,35.86,0,0,0,1,3.74A1.18,1.18,0,0,0,1111.81,389.1Z" transform="translate(-73.45 -236.74)"/><path class="cls-19" d="M1111.84,388.72l.15-.05,1.73-.4h0a1.3,1.3,0,0,0,.53-1.52c0-.1-.66-2.67-.92-3.31a1,1,0,0,0-1.15-.54l-.09,0-2.06.51h0a.56.56,0,0,0-.38.26,1.68,1.68,0,0,0,0,1.17,29.69,29.69,0,0,0,.92,3.29A1.06,1.06,0,0,0,1111.84,388.72Z" transform="translate(-73.45 -236.74)"/><path class="cls-20" d="M1113.24,384.91l-2.73.64c-.06-.26-.1-.43-.11-.45a2.22,2.22,0,0,1-.05-1.14.36.36,0,0,1,.26-.23h0l1.46-.36.06,0c.29-.07.67.06.87.6.07.19.17.55.29,1Z" transform="translate(-73.45 -236.74)"/><g class="cls-21"><path class="cls-22" d="M1068.25,401.45c6.5,1.22,13.11,2,19.71,2.7,13.59,1.39,27.13.62,40.76-.4,13.81-1,27.65-1.71,41.46-2.79,2.68-.21,5.35-.44,8-.67-47.89,6.95-84.27,8.74-89.58,8.4-9.92-.63-14.57-2.46-14.57-2.46s-9-2.67-9.85-3a8.37,8.37,0,0,1-4.2-4.13A37.73,37.73,0,0,0,1068.25,401.45Z" transform="translate(-73.45 -236.74)"/></g><path class="cls-23" d="M1275,338.76a49.29,49.29,0,0,0-21-.9c-11.73,2-101.4,27.2-101.4,27.2l100.87-24.87s4.58-1.59,7.74,1.46Z" transform="translate(-73.45 -236.74)"/><path class="cls-24" d="M1297.41,365.47a16.87,16.87,0,0,1-2.5-4.37c-1.14-5.08-1.27-10.82,3.12-12.88,0,0,9.94.31,13.45,5.6,0,0,2.19,3.85-10.82,14.13A9.34,9.34,0,0,1,1297.41,365.47Z" transform="translate(-73.45 -236.74)"/><path class="cls-3" d="M1083.16,396c4.61-.47,9.43-1.48,14-.68,4.28.73,7.61,3.39,11.85,4.08s8.83-.07,13-.48l17.17-1.69c6.24-.62,12.45-1.27,18.71-1.6,5.17-.27,10.64-.64,15.07-3.47,2.3-1.47,4.21-3.45,6.57-4.85a37.45,37.45,0,0,1,8.81-3.35,145.65,145.65,0,0,1,19-3.95c3-.44,6.07-1,9.11-1.24,2.74-.23,6-.24,8,1.79s1.44,5.08,5.24,5.19c11.16.35,21.7-3.68,32.09-7.08a275.15,275.15,0,0,0,32.37-12.46c5.37-2.56,11.13-5.37,15.39-9.45a13.72,13.72,0,0,0,2.49-3.13c0,.11.08.22.11.33,1.45,5.59-13.73,20.87-38.75,27.41-87.77,23-176.35,27.91-184.88,27.36-9.92-.63-14.57-2.46-14.57-2.46s-9-2.67-9.85-3a8,8,0,0,1-4.64-5.56C1067.44,397.2,1075.31,396.77,1083.16,396Z" transform="translate(-73.45 -236.74)"/><path class="cls-25" d="M1189.41,392.6s15.26-5.82,24.9-7.65l5.16,22.4,0,.07,1.15,2.26a134,134,0,0,1-26.09,3c-1.33.31-4-3.49-5.47-9S1188.08,392.91,1189.41,392.6Z" transform="translate(-73.45 -236.74)"/><path class="cls-26" d="M1212.66,399.25c-3.48.92-7,1.67-10.43,2.78-4.14,1.34-8.3,2.64-12.33,4.21-.29-.81-.57-1.66-.8-2.57-1.42-5.56-1-10.76.31-11.07,0,0,15.26-5.82,24.9-7.65l3,12.95C1215.75,398.3,1214.25,398.84,1212.66,399.25Z" transform="translate(-73.45 -236.74)"/><path class="cls-26" d="M1206.21,410.22l8.23-1c1.85-.22,3.62-.72,5.43-1.09l.79,1.57a134,134,0,0,1-26.09,3c-.48.11-1.13-.32-1.84-1.16C1197.22,411.07,1201.74,410.78,1206.21,410.22Z" transform="translate(-73.45 -236.74)"/><path class="cls-27" d="M1214.79,397.94c1.75,6.83,4.39,12.08,5.9,11.73s1.3-6.17-.45-13-4.39-12.07-5.9-11.72S1213,391.12,1214.79,397.94Z" transform="translate(-73.45 -236.74)"/><path class="cls-28" d="M1215.24,389.17c.06-.38.18-.61.36-.65.8-.19,2.42,3.49,3.64,8.2s1.54,8.7.74,8.88c-.2,0-.47-.16-.77-.59.24-1.33-.16-4.55-1.11-8.22A28.27,28.27,0,0,0,1215.24,389.17Z" transform="translate(-73.45 -236.74)"/><path class="cls-28" d="M1215.24,389.17a28.27,28.27,0,0,1,2.86,7.62c1,3.67,1.35,6.89,1.11,8.22a28,28,0,0,1-2.86-7.61C1215.4,393.72,1215,390.51,1215.24,389.17Z" transform="translate(-73.45 -236.74)"/><path class="cls-25" d="M1182.54,403.67s12.89-4.91,21-6.46l4.35,18.93,0,.05,1,1.91a112.66,112.66,0,0,1-22,2.56c-1.12.27-3.41-3-4.62-7.64S1181.42,403.94,1182.54,403.67Z" transform="translate(-73.45 -236.74)"/><path class="cls-26" d="M1202.19,409.3c-3,.77-5.91,1.4-8.81,2.34-3.5,1.13-7,2.23-10.43,3.56-.24-.68-.47-1.41-.67-2.18-1.2-4.69-.86-9.08.26-9.35,0,0,12.89-4.91,21-6.46l2.52,10.94C1204.8,408.49,1203.53,409,1202.19,409.3Z" transform="translate(-73.45 -236.74)"/><path class="cls-26" d="M1196.74,418.57l7-.87c1.55-.19,3-.61,4.58-.92l.67,1.32a112.66,112.66,0,0,1-22,2.56c-.4.1-1-.27-1.55-1C1189.14,419.28,1193,419,1196.74,418.57Z" transform="translate(-73.45 -236.74)"/><path class="cls-27" d="M1204,408.19c1.48,5.77,3.71,10.2,5,9.9s1.11-5.21-.37-11-3.72-10.2-5-9.9S1202.51,402.42,1204,408.19Z" transform="translate(-73.45 -236.74)"/><path class="cls-28" d="M1204.37,400.78c.05-.32.15-.52.3-.56.68-.15,2,2.95,3.08,6.94s1.3,7.34.63,7.5c-.18,0-.4-.14-.65-.5a21.61,21.61,0,0,0-.94-7A24,24,0,0,0,1204.37,400.78Z" transform="translate(-73.45 -236.74)"/><path class="cls-28" d="M1204.37,400.78a24,24,0,0,1,2.42,6.43,21.61,21.61,0,0,1,.94,7,23.32,23.32,0,0,1-2.42-6.43C1204.51,404.62,1204.16,401.91,1204.37,400.78Z" transform="translate(-73.45 -236.74)"/><path class="cls-29" d="M1182.82,385.59l33.09-7.71s8.71-1.36,5.65,3.44-37.52,33.2-37.52,33.2a24.21,24.21,0,0,1-8.7,4.23s-24.12,7.32-19.64,1.52,19.43-29.33,19.43-29.33S1178.73,386.37,1182.82,385.59Z" transform="translate(-73.45 -236.74)"/><path class="cls-30" d="M1182.82,385.59l33.09-7.71s8.71-1.36,5.65,3.44-37.52,33.2-37.52,33.2a24.21,24.21,0,0,1-8.7,4.23s-24.12,7.32-19.64,1.52,19.43-29.33,19.43-29.33S1178.73,386.37,1182.82,385.59Z" transform="translate(-73.45 -236.74)"/><path class="cls-31" d="M1155.7,420.27c4.47-5.79,19.43-29.33,19.43-29.33s3.6-4.57,7.69-5.35l3.89-.91c-3.88,2.43-6.69,5.77-9.52,9.54-4.09,5.44-8,11-12.13,16.42a72.78,72.78,0,0,0-4.84,6.69c-.8,1.32-1.75,2.72-1.24,4.25a2.23,2.23,0,0,0,.49.81C1156.17,422.74,1154.09,422.35,1155.7,420.27Z" transform="translate(-73.45 -236.74)"/><path class="cls-32" d="M1211.06,380s10-2.64,7.22,1.16S1187.15,410,1187.15,410s-6.07,6.36-12.19,7.26c0,0,6.74-3.78,9.74-7.53s26.08-25.65,26.08-25.65S1215.43,380.19,1211.06,380Z" transform="translate(-73.45 -236.74)"/><path class="cls-3" d="M1074,399.07l21.79-2.77a7,7,0,0,1,4.18,1.08c1.11.84,2.12,2.83.67,4.1-2.6,2.29-29.2,14.57-29.2,14.57s-5.55,2.24-10,1.78c0,0-12.24.94-8.72-1.89s15.78-14.52,15.78-14.52S1071.28,399.2,1074,399.07Z" transform="translate(-73.45 -236.74)"/><path class="cls-3" d="M1074,399.07l21.79-2.77s6.94.06,3.33,3.23c-2.6,2.29-27.72,15.32-27.72,15.32a18.42,18.42,0,0,1-6,1.68s-16.19,2.24-12.67-.59,15.78-14.52,15.78-14.52S1071.28,399.2,1074,399.07Z" transform="translate(-73.45 -236.74)"/><path class="cls-13" d="M1081,398.74l12.72-1.46s4.66-.38,4,1.5L1072,413.46l21-13.65s1.77-1-.42-1.32S1081,398.74,1081,398.74Z" transform="translate(-73.45 -236.74)"/><path class="cls-33" d="M1222.57,366s-89.62,18.71-119.11,23.42C1103.46,389.43,1168.51,384.31,1222.57,366Z" transform="translate(-73.45 -236.74)"/></g></g></svg>